<svg width="18" height="20" viewBox="0 0 18 20" fill="none" xmlns="http://www.w3.org/2000/svg">
<path d="M17.3332 20L12.9582 15.8333L13.4832 17.5H2.7499C2.19736 17.5 1.66746 17.2805 1.27676 16.8898C0.886058 16.4991 0.666565 15.9692 0.666565 15.4167V2.91668C0.666565 2.36414 0.886058 1.83424 1.27676 1.44354C1.66746 1.05284 2.19736 0.833344 2.7499 0.833344H15.2499C15.8024 0.833344 16.3323 1.05284 16.723 1.44354C17.1137 1.83424 17.3332 2.36414 17.3332 2.91668V20ZM8.9999 5.66668C6.76656 5.66668 5.1999 6.62501 5.1999 6.62501C6.05823 5.85834 7.55823 5.41668 7.55823 5.41668L7.41656 5.27501C6.00823 5.30001 4.73323 6.27501 4.73323 6.27501C3.2999 9.26668 3.39156 11.85 3.39156 11.85C4.55823 13.3583 6.29156 13.25 6.29156 13.25L6.88323 12.5C5.84156 12.275 5.18323 11.35 5.18323 11.35C5.18323 11.35 6.7499 12.4167 8.9999 12.4167C11.2499 12.4167 12.8166 11.35 12.8166 11.35C12.8166 11.35 12.1582 12.275 11.1166 12.5L11.7082 13.25C11.7082 13.25 13.4416 13.3583 14.6082 11.85C14.6082 11.85 14.6999 9.26668 13.2666 6.27501C13.2666 6.27501 11.9916 5.30001 10.5832 5.27501L10.4416 5.41668C10.4416 5.41668 11.9416 5.85834 12.7999 6.62501C12.7999 6.62501 11.2332 5.66668 8.9999 5.66668ZM7.2749 8.82501C7.81657 8.82501 8.25823 9.30001 8.2499 9.88334C8.2499 10.4583 7.81657 10.9417 7.2749 10.9417C6.74157 10.9417 6.30823 10.4583 6.30823 9.88334C6.30823 9.30001 6.73323 8.82501 7.2749 8.82501ZM10.7499 8.82501C11.2916 8.82501 11.7249 9.30001 11.7249 9.88334C11.7249 10.4583 11.2916 10.9417 10.7499 10.9417C10.2166 10.9417 9.78323 10.4583 9.78323 9.88334C9.78323 9.30001 10.2082 8.82501 10.7499 8.82501Z" fill="white"/>
</svg>
